<?xml version="1.0" encoding="UTF-8" standalone="no"?>
<svg
   width="96"
   height="21"
   viewBox="0 0 96 21"
   fill="none"
   version="1.1"
   id="svg1"
   sodipodi:docname="logo.svg"
   inkscape:version="1.3 (0e150ed6c4, 2023-07-21)"
   xmlns:inkscape="http://www.inkscape.org/namespaces/inkscape"
   xmlns:sodipodi="http://sodipodi.sourceforge.net/DTD/sodipodi-0.dtd"
   xmlns="http://www.w3.org/2000/svg"
   xmlns:svg="http://www.w3.org/2000/svg">
  <defs
     id="defs1" />
  <sodipodi:namedview
     id="namedview1"
     pagecolor="#505050"
     bordercolor="#eeeeee"
     borderopacity="1"
     inkscape:showpageshadow="0"
     inkscape:pageopacity="0"
     inkscape:pagecheckerboard="0"
     inkscape:deskcolor="#505050"
     inkscape:zoom="7.3215015"
     inkscape:cx="41.24837"
     inkscape:cy="-9.2194204"
     inkscape:window-width="1920"
     inkscape:window-height="1017"
     inkscape:window-x="-8"
     inkscape:window-y="-8"
     inkscape:window-maximized="1"
     inkscape:current-layer="svg1" />
  <path
     d="M 0.987109,20 V 19.72 L 1.54711,19.524 c 0.63467,-0.2053 0.952,-0.7373 0.952,-1.596 V 3.592 c 0,-0.37333 -0.04667,-0.672 -0.14,-0.896 C 2.28444,2.472 2.06978,2.28533 1.71511,2.136 L 0.987109,1.8 V 1.52 H 6.39111 L 11.5711,15.072 16.4431,1.52 h 5.516 V 1.8 l -0.448,0.168 c -0.3547,0.13067 -0.5973,0.31733 -0.728,0.56 -0.1307,0.224 -0.196,0.52267 -0.196,0.896 v 14.644 c 0,0.3733 0.0467,0.6627 0.14,0.868 0.0933,0.2053 0.3173,0.3827 0.672,0.532 l 0.56,0.252 V 20 h -6.972 v -0.28 l 0.588,-0.252 c 0.3547,-0.1493 0.5787,-0.3267 0.672,-0.532 0.0933,-0.2053 0.14,-0.4947 0.14,-0.868 v -6.3 L 16.4431,3.76 10.5911,20 H 9.19111 l -6.104,-16.044 0.084,6.972 v 7.056 c 0,0.4107 0.056,0.7467 0.168,1.008 0.13067,0.2427 0.37333,0.42 0.728,0.532 l 0.616,0.196 V 20 Z M 29.4813,20.42 c -1.4187,0 -2.6507,-0.2893 -3.696,-0.868 -1.0454,-0.5973 -1.8574,-1.4373 -2.436,-2.52 -0.56,-1.0827 -0.84,-2.352 -0.84,-3.808 0,-1.456 0.2986,-2.716 0.896,-3.78 0.616,-1.064 1.4466,-1.88533 2.492,-2.464 1.064,-0.57867 2.2586,-0.868 3.584,-0.868 1.3253,0 2.5106,0.28933 3.556,0.868 1.0453,0.56 1.8666,1.372 2.464,2.436 0.616,1.064 0.924,2.3333 0.924,3.808 0,1.4747 -0.2894,2.7533 -0.868,3.836 -0.56,1.064 -1.3627,1.8947 -2.408,2.492 -1.0267,0.5787 -2.2494,0.868 -3.668,0.868 z m 0,-0.56 c 0.6533,0 1.176,-0.1867 1.568,-0.56 0.392,-0.3733 0.672,-1.036 0.84,-1.988 0.1866,-0.952 0.28,-2.296 0.28,-4.032 0,-1.7547 -0.0934,-3.108 -0.28,-4.06 -0.168,-0.952 -0.448,-1.61467 -0.84,-1.988 -0.392,-0.37333 -0.9147,-0.56 -1.568,-0.56 -0.6534,0 -1.1854,0.18667 -1.596,0.56 -0.392,0.37333 -0.6814,1.036 -0.868,1.988 -0.168,0.952 -0.252,2.3053 -0.252,4.06 0,1.736 0.084,3.08 0.252,4.032 0.1866,0.952 0.476,1.6147 0.868,1.988 0.4106,0.3733 0.9426,0.56 1.596,0.56 z M 37.6551,20 v -0.28 l 0.392,-0.112 c 0.6533,-0.1867 0.98,-0.644 0.98,-1.372 V 9.472 c 0,-0.41067 -0.0654,-0.70933 -0.196,-0.896 -0.1307,-0.20533 -0.3827,-0.34533 -0.756,-0.42 l -0.42,-0.112 v -0.28 l 4.788,-1.624 0.28,0.28 0.224,1.68 c 0.6533,-0.57867 1.3906,-1.05467 2.212,-1.428 0.8213,-0.37333 1.6333,-0.56 2.436,-0.56 1.232,0 2.1746,0.336 2.828,1.008 0.672,0.672 1.008,1.69867 1.008,3.08 v 8.064 c 0,0.728 0.3546,1.1853 1.064,1.372 l 0.252,0.084 V 20 h -6.608 v -0.28 l 0.364,-0.112 c 0.6533,-0.2053 0.98,-0.6627 0.98,-1.372 V 9.304 c 0,-1.19467 -0.5974,-1.792 -1.792,-1.792 -0.8214,0 -1.7174,0.41067 -2.688,1.232 v 9.52 c 0,0.728 0.3266,1.1853 0.98,1.372 l 0.252,0.084 V 20 Z M 57.2026,4.656 c -0.6347,0 -1.176,-0.196 -1.624,-0.588 -0.4294,-0.41067 -0.644,-0.924 -0.644,-1.54 0,-0.63467 0.2146,-1.148 0.644,-1.540001 0.448,-0.392 0.9893,-0.588 1.624,-0.588 0.6346,0 1.1666,0.196 1.596,0.588 0.4293,0.392001 0.644,0.905331 0.644,1.540001 0,0.616 -0.2147,1.12933 -0.644,1.54 -0.4294,0.392 -0.9614,0.588 -1.596,0.588 z M 53.8986,20 v -0.28 l 0.392,-0.112 c 0.3733,-0.112 0.6253,-0.28 0.756,-0.504 0.1493,-0.224 0.224,-0.5227 0.224,-0.896 V 9.444 c 0,-0.392 -0.0747,-0.68133 -0.224,-0.868 -0.1307,-0.20533 -0.3827,-0.34533 -0.756,-0.42 l -0.392,-0.084 v -0.28 l 5.124,-1.652 0.28,0.28 -0.084,3.976 v 7.84 c 0,0.3733 0.0653,0.672 0.196,0.896 0.1493,0.224 0.4013,0.392 0.756,0.504 l 0.28,0.084 V 20 Z m 14.7356,0.42 c -1.2693,0 -2.4266,-0.2707 -3.472,-0.812 -1.0266,-0.56 -1.848,-1.3627 -2.464,-2.408 -0.5973,-1.064 -0.896,-2.3613 -0.896,-3.892 0,-1.512 0.3267,-2.8 0.98,-3.864 0.672,-1.08267 1.5587,-1.904 2.66,-2.464 1.12,-0.57867 2.3427,-0.868 3.668,-0.868 1.0827,0 1.9974,0.17733 2.744,0.532 0.7467,0.35467 1.316,0.82133 1.708,1.4 0.392,0.56 0.588,1.148 0.588,1.764 0,0.5227 -0.1586,0.9333 -0.476,1.232 -0.3173,0.28 -0.728,0.42 -1.232,0.42 -0.5413,0 -0.98,-0.196 -1.316,-0.588 -0.336,-0.392 -0.532,-0.90533 -0.588,-1.54 -0.0186,-0.41067 -0.0093,-0.756 0.028,-1.036 0.0374,-0.29867 0.0374,-0.59733 0,-0.896 -0.0746,-0.31733 -0.196,-0.52267 -0.364,-0.616 -0.1493,-0.112 -0.364,-0.168 -0.644,-0.168 -1.1386,0 -2.0253,0.49467 -2.66,1.484 -0.616,0.98933 -0.924,2.5667 -0.924,4.732 0,1.8853 0.3454,3.332 1.036,4.34 0.7094,0.9893 1.792,1.484 3.248,1.484 0.8774,0 1.5867,-0.1587 2.128,-0.476 0.5414,-0.3173 1.064,-0.7933 1.568,-1.428 l 0.28,0.224 c -0.4666,1.1013 -1.1853,1.9507 -2.156,2.548 -0.9706,0.5973 -2.1186,0.896 -3.444,0.896 z m 10.98,0 c -1.0827,0 -1.9974,-0.308 -2.744,-0.924 -0.728,-0.616 -1.092,-1.5027 -1.092,-2.66 0,-0.8773 0.448,-1.68 1.344,-2.408 0.896,-0.7467 2.3053,-1.3067 4.228,-1.68 0.2986,-0.056 0.6346,-0.112 1.008,-0.168 0.3733,-0.0747 0.7653,-0.1493 1.176,-0.224 v -2.212 c 0,-1.26933 -0.1587,-2.156 -0.476,-2.66 C 82.7595,6.96133 82.2835,6.7 81.6302,6.7 c -0.448,0 -0.8027,0.14933 -1.064,0.448 -0.2614,0.28 -0.4294,0.77467 -0.504,1.484 l -0.056,0.308 c -0.0374,0.80267 -0.2334,1.3907 -0.588,1.764 -0.3547,0.3733 -0.7934,0.56 -1.316,0.56 -0.4854,0 -0.8867,-0.1493 -1.204,-0.448 -0.3174,-0.2987 -0.476,-0.7 -0.476,-1.204 0,-0.76533 0.2613,-1.40933 0.784,-1.932 0.5413,-0.52267 1.2506,-0.91467 2.128,-1.176 0.8773,-0.26133 1.8293,-0.392 2.856,-0.392 1.6613,0 2.94,0.41067 3.836,1.232 0.9146,0.80267 1.372,2.11867 1.372,3.948 v 6.188 c 0,0.84 0.392,1.26 1.176,1.26 h 0.616 l 0.252,0.224 c -0.3547,0.448 -0.7467,0.7933 -1.176,1.036 -0.4107,0.2427 -0.9987,0.364 -1.764,0.364 -0.8214,0 -1.4747,-0.1867 -1.96,-0.56 -0.4667,-0.392 -0.7747,-0.9053 -0.924,-1.54 -0.56,0.5973 -1.1387,1.1107 -1.736,1.54 -0.5787,0.4107 -1.3347,0.616 -2.268,0.616 z m 1.708,-1.708 c 0.3733,0 0.7186,-0.084 1.036,-0.252 0.336,-0.1867 0.728,-0.4667 1.176,-0.84 v -4.704 c -0.1867,0.0373 -0.3734,0.0747 -0.56,0.112 -0.1867,0.0373 -0.4014,0.0747 -0.644,0.112 -0.8587,0.224 -1.5494,0.6067 -2.072,1.148 -0.504,0.5227 -0.756,1.232 -0.756,2.128 0,0.7653 0.1773,1.344 0.532,1.736 0.3546,0.3733 0.784,0.56 1.288,0.56 z m 12.0562,1.708 c -0.672,0 -1.2414,-0.2333 -1.708,-0.7 -0.4667,-0.4667 -0.7,-1.0267 -0.7,-1.68 0,-0.6533 0.2333,-1.2227 0.7,-1.708 0.4666,-0.4853 1.036,-0.728 1.708,-0.728 0.672,0 1.2413,0.2427 1.708,0.728 0.4666,0.4853 0.7,1.0547 0.7,1.708 0,0.6533 -0.2334,1.2133 -0.7,1.68 -0.4667,0.4667 -1.036,0.7 -1.708,0.7 z"
     fill="#fef5e4"
     id="path1"
     style="display:none" />
  <text
     xml:space="preserve"
     style="font-style:italic;font-variant:normal;font-weight:bold;font-stretch:normal;font-size:28.7812px;font-family:'Times New Roman';-inkscape-font-specification:'Times New Roman, Bold Italic';font-variant-ligatures:normal;font-variant-caps:normal;font-variant-numeric:normal;font-variant-east-asian:normal;letter-spacing:1px;fill:#e0d7e5;stroke:none;stroke-width:4.53246"
     x="6.9615684"
     y="20.119997"
     id="text1"><tspan
       sodipodi:role="line"
       id="tspan1"
       x="6.9615684"
       y="20.119997"
       style="font-style:italic;font-variant:normal;font-weight:bold;font-stretch:normal;font-size:28.7812px;font-family:'Times New Roman';-inkscape-font-specification:'Times New Roman, Bold Italic';font-variant-ligatures:normal;font-variant-caps:normal;font-variant-numeric:normal;font-variant-east-asian:normal;letter-spacing:1px;stroke-width:4.53246"><tspan
   style="font-style:normal;font-variant:normal;font-weight:bold;font-stretch:normal;font-size:28.7812px;font-family:'Times New Roman';-inkscape-font-specification:'Times New Roman, Bold';font-variant-ligatures:normal;font-variant-caps:normal;font-variant-numeric:normal;font-variant-east-asian:normal;letter-spacing:1px;stroke-width:4.53246"
   id="tspan2">A</tspan>licia.</tspan></text>
</svg>
